<?xml version="1.0" encoding="UTF-8"?>
<svg xmlns="http://www.w3.org/2000/svg" viewBox="0 0 481.65 483.85">
    <defs>
        <style>
            .cls-1 { fill: #fff; stroke-width: 0px; }
        </style>
    </defs>
    <g id="Layer_1" data-name="Layer 1">
        <g>
            <path class="cls-1" d="m5.33,256.85c1.83-13.89,13.78-18.32,23.46-18.32s17.85,6.36,27.42,11.41c12.12,6.39,5.26,16.86-.38,16.86-9.21,0-17.65-9.49-26.1-9.49-5.55,0-11.46.75-11.46,8.64s6.57,16.25,17.39,11.23c5.27-2.45,17.36-5.27,16.99,6.37-.44,13.7-8.98,7.77-18.98,7.19-9.69-.56-11.01,3.28-7.51,9.2,3.5,5.92,17.38,19.25,17.38,31.6,0,10.08-3.32,22.54-9.03,22.54-16.95,0-32.73-70.32-29.18-97.23Z"/>
            <path class="cls-1" d="m77.05,267.28c9.53.08,21.91,9.89,19.5,16.84-2.41,6.95-13.55,6.2-21.69,6.01-8.14-.19-9.26,20.85-5.79,22.16,3.47,1.31,11.62-.77,10.83,12.95-.79,13.72-9.12,6.96-13.41,7.71s-12.01,22.96-7.68,27.32,17.03.09,18.95,4.6c1.91,4.51-2.08,40.49-10.9,40.24-8.83-.25-26.53-26.83-26.15-32.96.38-6.12,14.29-46.92,15.55-55.64,1.26-8.73,5.02-49.36,20.79-49.23Z"/>
            <path class="cls-1" d="m123.38,283.28c-8.59,0-36.36,8.21-35.38,32.19.9,21.99,17.32,35.87,19.06,50.51,2.56,21.42-1.69,28.3-18.24,28.7-16.55.39-15.79,28.36-3.22,31.58,12.57,3.23,37.58-3.67,40.13-37.28,2.56-33.61-27.29-54.92-27.29-76.13,0-15.77,25.95-12.12,32.9-13.34,6.94-1.22,2.75-16.22-7.96-16.22Z"/>
            <path class="cls-1" d="m149.56,299.94c6.25,0,10.91,8.26,11.03,14.02.11,5.76-3.27,7.64-11.28,6.51-8.01-1.13,6.5,32.69,6.5,59.26,0,16.31-16.02,76.33-25.08,76.3-16.36-.06-13.73-11.25-13.04-17.14.69-5.89,19.02-37.04,23.54-54.58,5.35-20.74-.12-63.01-10.5-61.49-10.27,1.5-19.75,3.47-19.85-7.36-.1-10.39,11.62-5.04,19.4-8.76,7.78-3.72,14.27-6.76,19.28-6.76Z"/>
            <path class="cls-1" d="m160.58,272.47c10.17.13,19.52,34.29,20.69,68.61,1.17,34.31-4.24,47.62-2.99,77.98,1.26,30.37,2.45,51.26-15.24,52.74-17.69,1.48-.85-41.86.67-57.12.91-9.1,5.94-54.07,5.29-71.78-.65-17.72-3.46-40.29-14.12-51.21-10.66-10.92-7.6-19.38,5.69-19.22Z"/>
            <path class="cls-1" d="m207.34,267.4c-6.73-10.4-20.85-36.3-26.39-34.75-13.27,3.72-4.69,27.19,3.08,46.36,7.77,19.16-1.52,62.2,14.03,60.79,15.55-1.41,4.17-35.44,3.12-40.94-1.05-5.5.01-10.03,3.73-9.87,3.72.16,6.41,48.01,20.34,42.94,13.92-5.08-11.17-54.12-17.91-64.52Zm-13.57,9.78c-2.64-1.55-10.46-23.54-7.96-25.11,3.45-2.15,14.36,17.94,14.36,20.97,0,2.87-2.99,6.14-6.4,4.14Z"/>
            <path class="cls-1" d="m198.09,349.58c5.92.08,10.63,10.32,6.35,28.91-4.28,18.59-4.26,49.66,1.65,49.66,5.57,0,8.95-28.21,8.95-41.92,0-17.27-2.83-38.86,6.04-39.83,8.87-.97,14.1,12.97,11.41,32.78-2.69,19.81-13.95,102.21-28.52,102.21-8.4,0-8.85-33.18-10.14-42.15-3.41-23.63-3.17-47.87-3.55-56.42s-.92-33.37,7.81-33.24Z"/>
            <path class="cls-1" d="m234.9,296.3c8.28.81,6.39-40.18,6.17-45.85-.22-5.67-7.34-10.01-10.92-7.45-2.9,2.07,1.93,25.58-2.27 26.38-2.51.48-10.44-31.77-17.97-45.48-1.64-2.98-8.05-8.56-13.6-6.23-12.34,5.17,7.1,28.37,11.49,34.4,7.96,10.93,18.8,43.42,27.08,44.23Z"/>
            <path class="cls-1" d="m108.62,185.03c-7.74-33.09-40.31-43.73-37.64-53.06,2.67-9.33,33.34,16.51,54.68-23.45,10.2-19.1,5.07-86.32-49.9-44.19C40.52,91.35-3.27,173.1.19,211.89c1.66,18.61,38.15,19.47,46.08-1.78,4.69-12.58-5.56-79.57,4.93-77.17,7.82,1.79,19.61,26.26,21.75,39.25,5.55,33.68-15.43,39.84-4.17,66.34,6.05,14.23,33.29,18.04,39.46,9.41,6.17-8.63,5.79-39.75.38-62.9Zm-39.69-78.55c-7.82-2.52,9.08-17.11,16.05-23.49,16.37-14.99,24.93-12.12,24.93,1.92,0,29.32-33.16,24.1-40.98,21.57Z"/>
            <path class="cls-1" d="m137.89,23.15c25.12-14.36,24.91,41.42,24.91,68.64,0,25.55-8.93,58.53-10.79,74.25-1.57,13.33,15.56,3.64,23.16-15.54,13.33-33.68,10.42-75.46,5.64-95.56-3.56-14.97-18.2-36.5-9.47-44.2,5.96-5.26,20.95-6.82,26.36,2.85,16.4,29.3,13.95,94.96-2.55,144.13-6.65,19.82-36.08,100.61-60.4,102.51-19.36,1.51-10.25-43.89-5.16-72.39,3.45-19.34,14.38-68.33,13.71-93.85-.61-23.3-4.67-37.78-17.58-47.93-10.21-8.02,1.68-16.89,12.17-22.89Z"/>
            <path class="cls-1" d="m216.06,2.31c-9.22,7.9,9.24,47.43,4.76,97.07-6.16,68.18-24.47,112.94,1.7,99.13,45.3-23.9,67.31-76.92,59.17-131.83-5.8-39.15-51.53-76.45-65.63-64.37Zm47.01,77.19c3.09,21.61-23.86,38.42-23.54,31.48.82-17.52-4.59-53.86-3.3-63.43.97-7.27,24.12,12.9,26.84,31.95Z"/>
            <path class="cls-1" d="m274.82,0c16.35,0,52.54,14.78,60.01,33.23,8.19,20.22-10.5,69.87,7.98,71.93,21.9,2.44,1.73-61.21,22.09-66.79,8.53-2.34,21,1.99,28.69,22.58,8.03,21.49,3.41,51.32,1.68,72.78-4.37,54.41-27.44,122.98-48.85,133.88-22.98,11.69-47.67-12.66-36.32-32.86,7.89-14.03,44.38-51.98,54.83-69.05,10.82-17.67,12.91-47.37,11.46-53.14-2.85-11.35-25.98,46.99-38.66,45.8-11.37-1.07-9.84-68.79-19.47-68.44-8.86.32,4.43,95.94-9.94,111.09-24.97,26.33-37.03-17.35-27.41-41.43C324.43,50.71,258.85,0,274.82,0Z"/>
            <path class="cls-1" d="m423.21,89.98c19.65-2.69,61.16,88.02,47.4,84.03-14.57-4.22-31.74-28.71-38.92-24.3-5.99,3.68-8.27,34.45-4.08,38.63,7.73,7.73,41.77-19.49,48.23,13.91,1.75,9.04,1.63,20.94-4.94,22.47-11.91,2.78-36.47-10.58-45.25-10.3-15.3.5-37.44,50.42-28.47,59.09,17.64,17.05,54.06-17.72,71.55-22.24,9.37-2.42,23.18,34.53.91,56.8-24.04,24.04-102.92,5.35-104.69-18.01-1.57-20.81,20.68-37.55,34.35-86.03,12.18-43.18,9.13-112.03,23.91-114.05Z"/>
            <polygon class="cls-1" points="416.93 332.5 416.93 332.5 416.93 332.5 416.93 332.5"/>
            <path class="cls-1" d="m274.8,223.02c0-10.31-8.36-18.67-18.68-18.67s-18.67,8.36-18.67,18.67c0,8.09,5.18,14.92,12.37,17.51.83,15.96,3.97,80.45,1.79,109.44-2.5,33.21-19.88,108.6-16.72,122.74,2.97,13.24,19.28,16.41,25.38,0,6.84-18.38,7.39-86.73,10.01-122.74.18-2.44.41-27.32-1.16-57.36-1.51-28-5.44-50.99-5.43-51,11.97-3.26,11.11-18.02,11.11-18.59Z"/>
        </g>
    </g>
    <g id="Flag_3" data-name="Flag 3">
        <path class="cls-1" d="m466.72,330.76s-43.44,10.79-81.81.64c-29.84-7.89-46.31-17.57-109.54-83.89.65,4.07,3.17,26.13,4.61,42.31,0,0,3.46-3.16,10.25-5.81,6.33-2.47,17.76-1.34,17.76-1.34,0,0,2.08,14.32,3,22.57.97,8.68,5.79,27.22,5.79,27.22,0,0,6.01-9.67,10.96-13.18,5.44-3.86,16.09-4.53,16.09-4.53,0,0,5.75,16.29,7.63,21.31,2.33,6.19,10.37,26.01,10.37,26.01,0,0,1.93-12.14,7.67-19,5.03-6,12.98-10.58,12.98-10.58,0,0,8.25,8.03,12.52,15.65,4.25,7.58,8.24,20.22,8.24,20.22,0,0,6.15-9.85,12.1-17.77,4.71-6.27,12.06-13.49,12.06-13.49,0,0,9.87,6.33,14.33,11.17s,6.99,17.98,6.99,17.98c0,0,7.66-12.46,11.08-19.83s6.88-15.67,6.88-15.67Z"/>
    </g>
    <g id="Flag_2" data-name="Flag 2">
        <path class="cls-1" d="m362.51,391.93c-29.07-9.49-43.69-25.57-83.14-88.61h-.02c.47,5.26.89,10.9,1.21,16.76.39,7.55.89,30.1,1.09,36.72,0,0,6.61-6.13,13.26-7.95,5.13-1.41,14.61,1.63,14.61,1.63,0,0,.28,15.26,3.39,26.38,2.4,8.6,13.75,30.72,13.75,30.72,0,0,.74-10.16,5.94-17.56,3.12-4.45,8.05-7.01,8.05-7.01,0,0,8.46,14.87,12.6,23.11,5.36,10.69,11.22,21.01,11.22,21.01,0,0,4.18-11.78,9.82-18.02,7.27-8.05,14.89-11.3,14.89-11.3,0,0,3.03,3.68,6.27,11.53,3.56,8.61.74,19.87.74,19.87,0,0,18.06-17.21,20.6-19.81,4.73-4.85,14.28-16.62,14.28-16.62,0,0-33.78,10.49-68.56-.86Z"/>
    </g>
    <g id="flag_1" data-name="flag 1">
        <path class="cls-1" d="m281.84,373.2c.06,8.21-.03,13.57-.11,14.64-.59,8.09-1.9,27.89-2.37,38.32,0,0,5.96-6.89,12.47-9.31,6.96-2.58,13.5,1.15,13.5,1.15,0,0-4.24,8.49-3.84,20.14.34,10.17,2.76,22.11,2.76,22.11,0,0,6.24-10.5,13.01-15.65,5.63-4.28,12.78-6.71,12.78-6.71,0,0,2.32,4.48,1.97,14.16-.37,10.26-.93,15.78-.93,15.78,0,0,11.52-4.92,16.86-7.67s,18.69-10.64,18.69-10.64c-39.48-7.91-62.71-26.32-84.78-76.32Z"/>
    </g>
    <g id="stang">
        <path class="cls-1" d="m274.8,223.02c0-10.31-8.36-18.67-18.68-18.67s-18.67,8.36-18.67,18.67c0,8.09,5.18,14.92,12.37,17.51.83,15.96,3.97,80.45,1.79,109.44-2.5,33.21-19.88,108.6-16.72,122.74,2.97,13.24,19.28,16.41,25.38,0,6.84-18.38,7.39-86.73,10.01-122.74.18-2.44.41-27.32-1.16-57.36-1.51-28-5.44-50.99-5.43-51,11.97-3.26,11.11-18.02,11.11-18.59Z"/>
    </g>
</svg>
<?xml version="1.0" encoding="UTF-8"?>
<svg xmlns="http://www.w3.org/2000/svg" viewBox="0 0 481.65 483.85">
  <defs>
    <style>
      .cls-1 {
        fill: #fff;
        stroke-width: 0px;
      }
    </style>
  </defs>
  <g id="Layer_1" data-name="Layer 1">
    <g>
      <path class="cls-1" d="m5.33,256.85c1.83-13.89,13.78-18.32,23.46-18.32s17.85,6.36,27.42,11.41c12.12,6.39,5.26,16.86-.38,16.86-9.21,0-17.65-9.49-26.1-9.49-5.55,0-11.46.75-11.46,8.64s6.57,16.25,17.39,11.23c5.27-2.45,17.36-5.27,16.99,6.37-.44,13.7-8.98,7.77-18.98,7.19-9.69-.56-11.01,3.28-7.51,9.2,3.5,5.92,17.38,19.25,17.38,31.6,0,10.08-3.32,22.54-9.03,22.54-16.95,0-32.73-70.32-29.18-97.23Z"/>
      <path class="cls-1" d="m77.05,267.28c9.53.08,21.91,9.89,19.5,16.84-2.41,6.95-13.55,6.2-21.69,6.01-8.14-.19-9.26,20.85-5.79,22.16,3.47,1.31,11.62-.77,10.83,12.95-.79,13.72-9.12,6.96-13.41,7.71s-12.01,22.96-7.68,27.32,17.03.09,18.95,4.6c1.91,4.51-2.08,40.49-10.9,40.24-8.83-.25-26.53-26.83-26.15-32.96.38-6.12,14.29-46.92,15.55-55.64,1.26-8.73,5.02-49.36,20.79-49.23Z"/>
      <path class="cls-1" d="m123.38,283.28c-8.59,0-36.36,8.21-35.38,32.19.9,21.99,17.32,35.87,19.06,50.51,2.56,21.42-1.69,28.3-18.24,28.7-16.55.39-15.79,28.36-3.22,31.58,12.57,3.23,37.58-3.67,40.13-37.28,2.56-33.61-27.29-54.92-27.29-76.13,0-15.77,25.95-12.12,32.9-13.34,6.94-1.22,2.75-16.22-7.96-16.22Z"/>
      <path class="cls-1" d="m149.56,299.94c6.25,0,10.91,8.26,11.03,14.02.11,5.76-3.27,7.64-11.28,6.51-8.01-1.13,6.5,32.69,6.5,59.26,0,16.31-16.02,76.33-25.08,76.3-16.36-.06-13.73-11.25-13.04-17.14.69-5.89,19.02-37.04,23.54-54.58,5.35-20.74-.12-63.01-10.5-61.49-10.27,1.5-19.75,3.47-19.85-7.36-.1-10.39,11.62-5.04,19.4-8.76,7.78-3.72,14.27-6.76,19.28-6.76Z"/>
      <path class="cls-1" d="m160.58,272.47c10.17.13,19.52,34.29,20.69,68.61,1.17,34.31-4.24,47.62-2.99,77.98,1.26,30.37,2.45,51.26-15.24,52.74-17.69,1.48-.85-41.86.67-57.12.91-9.1,5.94-54.07,5.29-71.78-.65-17.72-3.46-40.29-14.12-51.21-10.66-10.92-7.6-19.38,5.69-19.22Z"/>
      <path class="cls-1" d="m207.34,267.4c-6.73-10.4-20.85-36.3-26.39-34.75-13.27,3.72-4.69,27.19,3.08,46.36,7.77,19.16-1.52,62.2,14.03,60.79,15.55-1.41,4.17-35.44,3.12-40.94-1.05-5.5.01-10.03,3.73-9.87,3.72.16,6.41,48.01,20.34,42.94,13.92-5.08-11.17-54.12-17.91-64.52Zm-13.57,9.78c-2.64-1.55-10.46-23.54-7.96-25.11,3.45-2.15,14.36,17.94,14.36,20.97,0,2.87-2.99,6.14-6.4,4.14Z"/>
      <path class="cls-1" d="m198.09,349.58c5.92.08,10.63,10.32,6.35,28.91-4.28,18.59-4.26,49.66,1.65,49.66,5.57,0,8.95-28.21,8.95-41.92,0-17.27-2.83-38.86,6.04-39.83,8.87-.97,14.1,12.97,11.41,32.78-2.69,19.81-13.95,102.21-28.52,102.21-8.4,0-8.85-33.18-10.14-42.15-3.41-23.63-3.17-47.87-3.55-56.42s-.92-33.37,7.81-33.24Z"/>
      <path class="cls-1" d="m234.9,296.3c8.28.81,6.39-40.18,6.17-45.85-.22-5.67-7.34-10.01-10.92-7.45-2.9,2.07,1.93,25.58-2.27 26.38-2.51.48-10.44-31.77-17.97-45.48-1.64-2.98-8.05-8.56-13.6-6.23-12.34,5.17,7.1,28.37,11.49,34.4,7.96,10.93,18.8,43.42,27.08,44.23Z"/>
      <path class="cls-1" d="m108.62,185.03c-7.74-33.09-40.31-43.73-37.64-53.06,2.67-9.33,33.34,16.51,54.68-23.45,10.2-19.1,5.07-86.32-49.9-44.19C40.52,91.35-3.27,173.1.19,211.89c1.66,18.61,38.15,19.47,46.08-1.78,4.69-12.58-5.56-79.57,4.93-77.17,7.82,1.79,19.61,26.26,21.75,39.25,5.55,33.68-15.43,39.84-4.17,66.34,6.05,14.23,33.29,18.04,39.46,9.41,6.17-8.63,5.79-39.75.38-62.9Zm-39.69-78.55c-7.82-2.52,9.08-17.11,16.05-23.49,16.37-14.99,24.93-12.12,24.93,1.92,0,29.32-33.16,24.1-40.98,21.57Z"/>
      <path class="cls-1" d="m137.89,23.15c25.12-14.36,24.91,41.42,24.91,68.64,0,25.55-8.93,58.53-10.79,74.25-1.57,13.33,15.56,3.64,23.16-15.54,13.33-33.68,10.42-75.46,5.64-95.56-3.56-14.97-18.2-36.5-9.47-44.2,5.96-5.26,20.95-6.82,26.36,2.85,16.4,29.3,13.95,94.96-2.55,144.13-6.65,19.82-36.08,100.61-60.4,102.51-19.36,1.51-10.25-43.89-5.16-72.39,3.45-19.34,14.38-68.33,13.71-93.85-.61-23.3-4.67-37.78-17.58-47.93-10.21-8.02,1.68-16.89,12.17-22.89Z"/>
      <path class="cls-1" d="m216.06,2.31c-9.22,7.9,9.24,47.43,4.76,97.07-6.16,68.18-24.47,112.94,1.7,99.13,45.3-23.9,67.31-76.92,59.17-131.83-5.8-39.15-51.53-76.45-65.63-64.37Zm47.01,77.19c3.09,21.61-23.86,38.42-23.54,31.48.82-17.52-4.59-53.86-3.3-63.43.97-7.27,24.12,12.9,26.84,31.95Z"/>
      <path class="cls-1" d="m274.82,0c16.35,0,52.54,14.78,60.01,33.23,8.19,20.22-10.5,69.87,7.98,71.93,21.9,2.44,1.73-61.21,22.09-66.79,8.53-2.34,21,1.99,28.69,22.58,8.03,21.49,3.41,51.32,1.68,72.78-4.37,54.41-27.44,122.98-48.85,133.88-22.98,11.69-47.67-12.66-36.32-32.86,7.89-14.03,44.38-51.98,54.83-69.05,10.82-17.67,12.91-47.37,11.46-53.14-2.85-11.35-25.98,46.99-38.66,45.8-11.37-1.07-9.84-68.79-19.47-68.44-8.86.32,4.43,95.94-9.94,111.09-24.97,26.33-37.03-17.35-27.41-41.43C324.43,50.71,258.85,0,274.82,0Z"/>
      <path class="cls-1" d="m423.21,89.98c19.65-2.69,61.16,88.02,47.4,84.03-14.57-4.22-31.74-28.71-38.92-24.3-5.99,3.68-8.27,34.45-4.08,38.63,7.73,7.73,41.77-19.49,48.23,13.91,1.75,9.04,1.63,20.94-4.94,22.47-11.91,2.78-36.47-10.58-45.25-10.3-15.3.5-37.44,50.42-28.47,59.09,17.64,17.05,54.06-17.72,71.55-22.24,9.37-2.42,23.18,34.53.91,56.8-24.04,24.04-102.92,5.35-104.69-18.01-1.57-20.81,20.68-37.55,34.35-86.03,12.18-43.18,9.13-112.03,23.91-114.05Z"/>
      <polygon class="cls-1" points="416.93 332.5 416.93 332.5 416.93 332.5 416.93 332.5"/>
      <path class="cls-1" d="m274.8,223.02c0-10.31-8.36-18.67-18.68-18.67s-18.67,8.36-18.67,18.67c0,8.09,5.18,14.92,12.37,17.51.83,15.96,3.97,80.45,1.79,109.44-2.5,33.21-19.88,108.6-16.72,122.74,2.97,13.24,19.28,16.41,25.38,0,6.84-18.38,7.39-86.73,10.01-122.74.18-2.44.41-27.32-1.16-57.36-1.51-28-5.44-50.99-5.43-51,11.97-3.26,11.11-18.02,11.11-18.59Z"/>
    </g>
  </g>
  <g id="Flag_3" data-name="Flag 3">
    <path class="cls-1" d="m466.72,330.76s-43.44,10.79-81.81.64c-29.84-7.89-46.31-17.57-109.54-83.89.65,4.07,3.17,26.13,4.61,42.31,0,0,3.46-3.16,10.25-5.81,6.33-2.47,17.76-1.34,17.76-1.34,0,0,2.08,14.32,3,22.57.97,8.68,5.79,27.22,5.79,27.22,0,0,6.01-9.67,10.96-13.18,5.44-3.86,16.09-4.53,16.09-4.53,0,0,5.75,16.29,7.63,21.31,2.33,6.19,10.37,26.01,10.37,26.01,0,0,1.93-12.14,7.67-19,5.03-6,12.98-10.58,12.98-10.58,0,0,8.25,8.03,12.52,15.65,4.25,7.58,8.24,20.22,8.24,20.22,0,0,6.15-9.85,12.1-17.77,4.71-6.27,12.06-13.49,12.06-13.49,0,0,9.87,6.33,14.33,11.17s,6.99,17.98,6.99,17.98c0,0,7.66-12.46,11.08-19.83s6.88-15.67,6.88-15.67Z"/>
  </g>
  <g id="Flag_2" data-name="Flag 2">
    <path class="cls-1" d="m362.51,391.93c-29.07-9.49-43.69-25.57-83.14-88.61h-.02c.47,5.26.89,10.9,1.21,16.76.39,7.55.89,30.1,1.09,36.72,0,0,6.61-6.13,13.26-7.95,5.13-1.41,14.61,1.63,14.61,1.63,0,0,.28,15.26,3.39,26.38,2.4,8.6,13.75,30.72,13.75,30.72,0,0,.74-10.16,5.94-17.56,3.12-4.45,8.05-7.01,8.05-7.01,0,0,8.46,14.87,12.6,23.11,5.36,10.69,11.22,21.01,11.22,21.01,0,0,4.18-11.78,9.82-18.02,7.27-8.05,14.89-11.3,14.89-11.3,0,0,3.03,3.68,6.27,11.53,3.56,8.61.74,19.87.74,19.87,0,0,18.06-17.21,20.6-19.81,4.73-4.85,14.28-16.62,14.28-16.62,0,0-33.78,10.49-68.56-.86Z"/>
  </g>
  <g id="flag_1" data-name="flag 1">
    <path class="cls-1" d="m281.84,373.2c.06,8.21-.03,13.57-.11,14.64-.59,8.09-1.9,27.89-2.37,38.32,0,0,5.96-6.89,12.47-9.31,6.96-2.58,13.5,1.15,13.5,1.15,0,0-4.24,8.49-3.84,20.14.34,10.17,2.76,22.11,2.76,22.11,0,0,6.24-10.5,13.01-15.65,5.63-4.28,12.78-6.71,12.78-6.71,0,0,2.32,4.48,1.97,14.16-.37,10.26-.93,15.78-.93,15.78,0,0,11.52-4.92,16.86-7.67s,18.69-10.64,18.69-10.64c-39.48-7.91-62.71-26.32-84.78-76.32Z"/>
  </g>
  <g id="stang">
    <path class="cls-1" d="m274.8,223.02c0-10.31-8.36-18.67-18.68-18.67s-18.67,8.36-18.67,18.67c0,8.09,5.18,14.92,12.37,17.51.83,15.96,3.97,80.45,1.79,109.44-2.5,33.21-19.88,108.6-16.72,122.74,2.97,13.24,19.28,16.41,25.38,0,6.84-18.38,7.39-86.73,10.01-122.74.18-2.44.41-27.32-1.16-57.36-1.51-28-5.44-50.99-5.43-51,11.97-3.26,11.11-18.02,11.11-18.59Z"/>
  </g>
</svg>
