<?xml version="1.0" encoding="UTF-8"?>
<svg id="Layer_1" data-name="Layer 1" xmlns="http://www.w3.org/2000/svg" viewBox="0 0 189.25 105.74">
  <defs>
    <style>
      .cls-1 {
        stroke-width: 0px;
      }
    </style>
  </defs>
  <g id="bNEAes.tif">
    <path class="cls-1" d="m94.05,78.92c9.5-9.51,17.79-17.82,26.09-26.11,16.15-16.12,32.29-32.25,48.47-48.34,5.48-5.45,12.39-5.9,17.19-1.28,4.84,4.67,4.62,11.67-.81,17.09-27.14,27.11-54.32,54.18-81.54,81.21-5.64,5.6-11.96,5.69-17.54.16C58.55,74.52,31.26,47.33,4.01,20.09-1.18,14.9-1.28,8,3.39,3.33c4.75-4.75,11.74-4.43,17.18.98,23.34,23.19,46.65,46.41,69.93,69.67,1.27,1.27,2.13,2.94,3.55,4.94Z"/>
  </g>
</svg>